<svg xmlns="http://www.w3.org/2000/svg" viewBox="0 0 673.94 379.08"><g style="isolation:isolate"><g id="a8b6e1ea-1b0a-4c9c-b7f0-226cb2d9819f" data-name="Layer 2"><g id="bef7e271-2349-4064-b357-8c9bd4c28d20" data-name="&lt;Layer&gt;"><polygon points="581.3 0 615.84 260.63 602.49 260.63 574.58 48.23 581.3 0" style="fill:#601933"/><polygon points="575.58 37.15 520.48 274.16 520.48 328.65 598.36 328.65 602.49 260.63 575.58 37.15" style="fill:#665989"/><polygon points="261.76 0 198.04 274.16 541.14 274.16 581.3 0 261.76 0" style="fill:#cd556a"/><path d="M214.35,204c51.32,6.33,110.06-20.21,149.25-72.66C394.41,90.07,406.43,41.8,400.16,0H261.76Z" style="fill:#cd556a;opacity:0.22;mix-blend-mode:screen"/><polygon points="574.47 46.61 576.89 30.08 365.21 30.08 574.47 46.61" style="fill:#b7485f"/><polygon points="250.44 48.68 247.63 60.79 544.26 54.59 250.44 48.68" style="fill:#b7485f"/><polygon points="568.67 86.24 570.3 75.12 277.2 75.12 568.67 86.24" style="fill:#b7485f"/><polygon points="559.08 151.71 560.42 142.57 338.06 137.67 559.08 151.71" style="fill:#b7485f"/><polygon points="317.28 92.49 423.75 92.49 397.06 208.83 317.28 92.49" style="fill:#92366a;opacity:0.46;mix-blend-mode:multiply"/><polygon points="140.98 328.33 520.49 328.33 520.49 274.14 362.94 273.84 362.93 208.83 383.97 208.83 260.8 54.59 140.98 203.74 140.98 328.33" style="fill:#617af7"/><polygon points="133.03 213.91 140.98 213.91 266.28 61.41 260.8 54.59 133.03 213.91" style="fill:#92366a"/><polygon points="282.19 81.37 140.96 213.92 266.27 61.42 282.19 81.37" style="fill:#464c66;opacity:0.49;mix-blend-mode:multiply"/><polygon points="317.28 92.49 260.8 44.5 397.06 208.83 317.28 92.49" style="fill:#913451"/><polygon points="361.25 274.16 367.34 281.23 520.49 281.08 520.49 274.14 361.25 274.16" style="fill:#464c66;opacity:0.49;mix-blend-mode:multiply"/><polygon points="581.3 0 541.14 260.63 541.14 274.16 581.3 27.97 615.84 260.63 618.3 251.41 581.3 0" style="fill:#92366a"/><polygon points="449.39 75.44 507.72 97.9 486.81 190.92 449.39 75.44" style="fill:#92366a"/><polygon points="381.9 208.83 381.9 273.95 362.85 273.98 362.93 208.83 381.9 208.83" style="fill:#665989"/><rect x="361.24" y="260.63" width="179.9" height="13.53" style="fill:#591248"/><polygon points="392.29 217.2 381.9 208.83 361.24 260.63 393.98 260.63 392.29 217.2" style="fill:#cd556a"/><polygon points="486.81 190.92 420.68 190.92 420.68 144.99 450.4 83.12 486.81 145.26 486.81 190.92" style="fill:#617af7"/><polygon points="412.57 150.45 420.68 150.45 420.68 144.99 450.56 88.57 483.09 140.01 483.04 150.45 488.91 150.45 488.9 137.76 449.39 75.44 412.58 139.37 412.57 150.45" style="fill:#ff7a81"/><polygon points="450.56 88.57 447.38 83.12 415.91 139.53 415.91 150.45 420.68 150.45 420.68 144.99 450.56 88.57" style="fill:#92366a"/><polygon points="260.8 54.59 133.03 213.91 121.53 213.91 260.8 44.5 397.06 208.83 383.97 208.83 260.8 54.59" style="fill:#ff7a81"/><polygon points="598.36 369.98 523.03 369.98 523.03 328.33 602.49 328.33 598.36 369.98" style="fill:#99ced5"/><polygon points="523.03 369.98 137.16 369.98 133.03 328.33 523.03 328.33 523.03 369.98" style="fill:#bad7df"/><path d="M326.85,355.4c106.94,0,193.63-12.12,193.63-27.07H133.22C133.22,343.28,219.91,355.4,326.85,355.4Z" style="fill:#bad7df;opacity:0.34;mix-blend-mode:screen"/><polygon points="548.39 191.46 486.81 190.92 507.72 97.9 548.39 191.46" style="fill:#92366a;opacity:0.46;mix-blend-mode:multiply"/><polygon points="602.49 328.33 598.36 369.98 523.03 369.98 595.21 363.21 602.49 328.33" style="fill:#92366a;opacity:0.32;mix-blend-mode:multiply"/><rect x="40.88" y="369.97" width="633.05" height="9.11" style="fill:#6c3d26"/><path d="M289,144.69c-7.91,0-14.34-6-14.34-13.29s6.43-13.28,14.34-13.28,14.34,6,14.34,13.28S296.9,144.69,289,144.69Z" style="fill:#6d5c50"/><path d="M289,144.69c-7.91,0-14.34-6-14.34-13.29s6.43-13.28,14.34-13.28,14.34,6,14.34,13.28S296.9,144.69,289,144.69Z" style="fill:#6d5c50"/><path d="M286.17,121.93c7.9,0,14.34,6,14.34,13.29a12.28,12.28,0,0,1-1.29,5.48,12.73,12.73,0,0,0,4.12-9.3c0-7.32-6.44-13.28-14.34-13.28a14.45,14.45,0,0,0-13.06,7.8A14.87,14.87,0,0,1,286.17,121.93Z" style="fill:#3d2f26"/><path d="M289,117.2c-8.47,0-15.33,6.36-15.33,14.2s6.86,14.2,15.33,14.2,15.32-6.36,15.32-14.2S297.46,117.2,289,117.2Zm0,26.57c-7.36,0-13.35-5.55-13.35-12.37S281.64,119,289,119s13.35,5.55,13.35,12.37S296.36,143.77,289,143.77Z" style="fill:#e5e5da"/><path d="M466,139.09c-8.73,0-15.81,6.28-15.81,14v36.56h31.63V153.12C481.83,145.37,474.75,139.09,466,139.09Z" style="fill:#1e1006;opacity:0.4;mix-blend-mode:multiply"/><path d="M451,188.91V153.12a13.27,13.27,0,1,1,26.53,0v35.79Z" style="fill:#1c7c63"/><path d="M451,188.91V153.12a13.27,13.27,0,1,1,26.53,0v35.79Z" style="fill:#2adcdf"/><path d="M465.94,140a13.76,13.76,0,0,0-1.71-.12A13.28,13.28,0,0,0,451,153.12v35.79h3.43V153.12A13.29,13.29,0,0,1,465.94,140Z" style="fill:#2a5146"/><polygon points="476.83 156.82 464.23 156.82 464.23 140.61 463.05 140.61 463.05 156.82 451.09 156.82 451.09 157.77 463.05 157.77 463.05 188.91 464.23 188.91 464.23 157.77 476.83 157.77 476.83 156.82" style="fill:#662c10"/><path d="M464.23,139.09a14,14,0,0,0-14,14v36.56h28.06V153.12A14,14,0,0,0,464.23,139.09Zm12.5,49.06h-25v-35a12.51,12.51,0,1,1,25,0Z" style="fill:#fff9f3"/><polygon points="257.91 201.23 257.91 305.71 199.65 312.17 269.71 316.61 269.71 305.71 267.09 305.71 257.91 201.23" style="fill:#1e1006;opacity:0.4;mix-blend-mode:multiply"/><rect x="208.42" y="201.23" width="49.5" height="104.48" style="fill:#fff9f3"/><rect x="184.15" y="231.95" width="98.02" height="43.03" transform="translate(486.63 20.3) rotate(90)" style="fill:#2adcdf"/><polygon points="211.65 204.46 246.69 211.62 245.01 302.48 254.68 302.48 254.68 204.46 211.65 204.46" style="fill:#3cf7f7"/><rect x="165.18" y="250.92" width="98.02" height="5.1" transform="translate(467.66 39.27) rotate(90)" style="fill:#2a5146"/><rect x="231.28" y="204.46" width="1.88" height="98.02" style="fill:#662c10"/><rect x="211.65" y="233.83" width="43.03" height="1.62" style="fill:#662c10"/><rect x="199.65" y="305.71" width="65.32" height="6.46" style="fill:#662c10"/><rect x="200.76" y="306.52" width="11.51" height="4.75" style="fill:#f15a53"/><rect x="213.68" y="306.52" width="11.51" height="4.75" style="fill:#f15a53"/><rect x="226.47" y="306.52" width="11.51" height="4.75" style="fill:#f15a53"/><rect x="239.26" y="306.52" width="11.51" height="4.75" style="fill:#f15a53"/><rect x="252.04" y="306.52" width="11.51" height="4.75" style="fill:#f15a53"/><polygon points="347.26 201.23 347.26 305.71 289 312.17 359.06 316.61 359.06 305.71 356.44 305.71 347.26 201.23" style="fill:#1e1006;opacity:0.4;mix-blend-mode:multiply"/><rect x="297.76" y="201.23" width="49.5" height="104.48" style="fill:#fff9f3"/><rect x="273.5" y="231.95" width="98.02" height="43.03" transform="translate(575.98 -69.04) rotate(90)" style="fill:#2adcdf"/><polygon points="300.99 204.46 336.04 211.62 334.36 302.48 344.03 302.48 344.03 204.46 300.99 204.46" style="fill:#3cf7f7"/><rect x="254.53" y="250.92" width="98.02" height="5.1" transform="translate(557.01 -50.07) rotate(90)" style="fill:#2a5146"/><rect x="320.63" y="204.46" width="1.88" height="98.02" style="fill:#662c10"/><rect x="300.99" y="233.83" width="43.03" height="1.62" style="fill:#662c10"/><rect x="289" y="305.71" width="65.32" height="6.46" style="fill:#662c10"/><rect x="290.11" y="306.52" width="11.51" height="4.75" style="fill:#f15a53"/><rect x="303.03" y="306.52" width="11.51" height="4.75" style="fill:#f15a53"/><rect x="315.82" y="306.52" width="11.51" height="4.75" style="fill:#f15a53"/><rect x="328.6" y="306.52" width="11.51" height="4.75" style="fill:#f15a53"/><rect x="341.39" y="306.52" width="11.51" height="4.75" style="fill:#f15a53"/><rect x="562.24" y="280.01" width="24.22" height="89.97" style="fill:#363654"/><rect x="585.07" y="280.01" width="1.39" height="89.97" style="fill:#42210b"/><path d="M574.35,262.85A12.11,12.11,0,0,0,562.24,275v1.7h24.22V275A12.11,12.11,0,0,0,574.35,262.85Z" style="fill:#96908a"/><path d="M564.21,274.69a10.15,10.15,0,0,1,20.29,0Z" style="fill:#199b9b"/><path d="M571.19,274.69l-3.44-7.44a10,10,0,0,0-.75.71l3.11,6.73Z" style="fill:#42210b"/><path d="M574.84,274.69v-9.87l-.49,0-.49,0v9.87Z" style="fill:#42210b"/><path d="M578.65,274.69l2.78-7a10,10,0,0,0-.78-.68l-3,7.69Z" style="fill:#42210b"/><path d="M565.67,283.34V337h16.17v-53.7Zm14.21,51.74H567.63V285.3h12.25Z" style="fill:#42210b"/><rect x="582.95" y="318.05" width="0.98" height="8.82" style="fill:#eb9b29"/><path d="M125.68,269.08A62.84,62.84,0,1,1,62.84,206,63,63,0,0,1,125.68,269.08Z" style="fill:#49841a"/><path d="M0,269.08a63,63,0,0,0,8.25,31.27A63.11,63.11,0,0,0,78.72,208,62.84,62.84,0,0,0,0,269.08Z" style="fill:#55931f"/><path d="M109.34,322.41c-1.45,11.56-13,19.63-25.81,18s-22-12.29-20.54-23.85,13-19.63,25.81-18S110.8,310.85,109.34,322.41Z" style="fill:#55931f"/><path d="M72.73,334l-8,7.32V310.39l8.45-13.05-.44-.86-8,7.33V288.12a2,2,0,0,0-2-2h0a2,2,0,0,0-2,2v15.73l-8-5.8-.25.57,8.29,11.22V370h3.92V347.88l8.45-13.05Z" style="fill:#50336e"/></g></g></g></svg>