<svg xmlns="http://www.w3.org/2000/svg" xmlns:xlink="http://www.w3.org/1999/xlink" viewBox="0 0 501.63 429.2"><defs><linearGradient id="f97be68d-28ae-433d-87e6-a7ef6898f74d" x1="410.3" y1="85.63" x2="511.96" y2="206.78" gradientUnits="userSpaceOnUse"><stop offset="0" stop-color="#4c75ff"/><stop offset="1" stop-color="#574ddd"/></linearGradient><linearGradient id="abe66af6-dc68-46e6-b02d-351c2ca7b6b6" x1="0" y1="171.62" x2="501.63" y2="171.62" xlink:href="#f97be68d-28ae-433d-87e6-a7ef6898f74d"/><linearGradient id="a4a3a3cf-06f7-4f8e-b141-dddbd7d9ea42" x1="5.66" y1="150.45" x2="294.71" y2="150.45" xlink:href="#f97be68d-28ae-433d-87e6-a7ef6898f74d"/><linearGradient id="fa1323ef-ae67-4ba8-acf0-621eb7ed62e0" x1="423.66" y1="79.18" x2="504.98" y2="176.1" xlink:href="#f97be68d-28ae-433d-87e6-a7ef6898f74d"/><linearGradient id="ad4721cb-e10a-47d7-aefa-84d6043fd2eb" x1="92.17" y1="349.2" x2="409.47" y2="349.2" xlink:href="#f97be68d-28ae-433d-87e6-a7ef6898f74d"/></defs><g id="ed39b812-5261-4b4f-8320-b4ed08788721" data-name="Layer 2"><g id="f4204c41-7866-4337-8951-990fdcf2d8ec" data-name="Ebene 1"><path d="M474,89.31H411.77a16.12,16.12,0,0,0-16.11,16.11v22.4a16.06,16.06,0,0,0,2.87,9.17l62.19,89.75c9,13,29.36,6.62,29.36-9.17V105.42A16.12,16.12,0,0,0,474,89.31Z" style="fill:url(#f97be68d-28ae-433d-87e6-a7ef6898f74d)"/><path d="M45.75,332.07l182.8-143.92a30.14,30.14,0,0,1,36.27-.1L456,336.76c23.94,18.62,58.52-7.93,40.72-31.26L271.84,10.82c-10.8-14.14-34.48-14.15-45.29,0L4.92,300.89C-13,324.29,21.86,350.88,45.75,332.07Z" style="fill:url(#abe66af6-dc68-46e6-b02d-351c2ca7b6b6)"/><path d="M228.15,9.7C238.72-4.13,262.39-3,270.94,11.9c25.8,44.89,54.06,127.69-53,170.54C20.37,261.48,5.66,300.89,5.66,300.89Z" style="fill:url(#a4a3a3cf-06f7-4f8e-b141-dddbd7d9ea42)"/><path d="M417.52,89.31a16.17,16.17,0,0,0-12.33,26.62c5.63,6.67,14.57,12.58,28.77,14.84,26.22,4.18,42.21,36,50.09,57.44a3.11,3.11,0,0,0,6-1.1V105.46a16.14,16.14,0,0,0-16.14-16.15Z" style="fill:url(#fa1323ef-ae67-4ba8-acf0-621eb7ed62e0)"/><path d="M133.15,292.91a10.67,10.67,0,0,0-7.57,3.12h0a10.69,10.69,0,1,0,15.11,15.12l.17-.16a10.7,10.7,0,0,0-7.72-18.09Zm117.67,74.6h.29c4.89,0,10.38,0,13.56,18.19,1.34,7.66,3.22,18,5.9,25.86,2.09,6.12,4.36,10.65,6.45,10h0l.07,0c3.16-1.51,6-10.43,7.48-21.73,1.55-12,1.13-26.32-2.59-37.48a45.24,45.24,0,0,0-2-4.93,72.76,72.76,0,0,0-25.21-28.77q-1.95-1.29-4-2.46c-1.35.78-2.68,1.6-4,2.46a72.87,72.87,0,0,0-25.22,28.77,43.28,43.28,0,0,0-2,4.93c-3.72,11.16-4.14,25.46-2.6,37.48,1.45,11.3,4.33,20.22,7.49,21.73l.06,0h0c2.1.68,4.36-3.85,6.45-10,2.68-7.87,4.56-18.2,5.9-25.86,3.18-18.23,8.68-18.21,13.56-18.19Zm.31,7.55h-.64c-1.87,0-4,0-6.06,11.94-1.38,7.89-3.33,18.54-6.2,27-3.46,10.15-8.47,17.22-16,14.71h0a7.5,7.5,0,0,1-.92-.38c-5.5-2.63-10-13.9-11.72-27.59-1.67-13-1.18-28.51,2.92-40.8a49.71,49.71,0,0,1,2.33-5.82,80.41,80.41,0,0,1,27.85-31.82l.11-.08a61,61,0,0,0-22.61-4.66c-13.34-.12-25.53,1-36.9,4.21a88.41,88.41,0,0,0-31.81,16.44l-.32.25c1,.52,2,1.08,3,1.65,9.61,5.66,16.83,13.76,23.36,22.22a73.37,73.37,0,0,1,12.69,23.94,76.87,76.87,0,0,1,3,20.34c.16,4.89-.26,9-1.39,11.76a7.6,7.6,0,0,1-3.59,4.15,6.55,6.55,0,0,1-5.95-.13c-2.12-1-4.56-3.19-7.33-6.82-2-2.61-4.26-5.76-6.53-8.91-6.14-8.53-12.28-17.07-12.31-17.06-.54.28.56,6.78,1.64,13.16.35,2.09.71,4.18,1,6.31.59,4.32-.18,9.22-2,12.27a8.15,8.15,0,0,1-3.9,3.62,6.7,6.7,0,0,1-6-.51c-2.57-1.44-5.43-4.92-8.3-11.38-8.67-19.51-9.82-34.64-9.83-34.68a3.79,3.79,0,1,1,7.56-.59s1.06,14,9.18,32.22c1.93,4.34,3.49,6.67,4.71,7.59l0-.06a12.82,12.82,0,0,0,1-7.48c-.24-1.8-.61-3.93-1-6.07-1.53-9.07-3.1-18.3,2.37-21.12,5.81-3,13.86,8.18,21.91,19.36,2.12,3,4.25,5.92,6.4,8.74a20.1,20.1,0,0,0,4,4.23,25.83,25.83,0,0,0,.72-8.36A69.65,69.65,0,0,0,183,388.41a66.12,66.12,0,0,0-11.41-21.48c-6.06-7.84-12.67-15.3-21.2-20.32a45.8,45.8,0,0,0-5.87-2.91c-8,6.24-15.53,11.72-21.92,15.82-8.92,5.71-16.18,8.94-20.59,8.21-3.31-.54-6.68-3.77-8.44-8.1a18.44,18.44,0,0,1-1.33-7.77A16.47,16.47,0,0,1,95,343.41c3.33-5,10-9.2,21.66-10.45,10.33-1.11,19-.17,26.52,2.2,1.2-.94,2.4-1.9,3.62-2.87a95.63,95.63,0,0,1,34.47-17.82c12.09-3.41,25-4.61,39-4.49a69.7,69.7,0,0,1,30.59,7.57A69.69,69.69,0,0,1,281.4,310c14.05-.12,26.93,1.08,39,4.49a95.67,95.67,0,0,1,34.48,17.82q1.82,1.45,3.62,2.87c7.49-2.37,16.18-3.31,26.52-2.2,11.71,1.25,18.33,5.45,21.66,10.45a16.56,16.56,0,0,1,2.76,8.45,18.44,18.44,0,0,1-1.34,7.77c-1.76,4.33-5.13,7.56-8.43,8.1-4.41.73-11.68-2.5-20.6-8.21-6.39-4.1-13.89-9.58-21.92-15.82a46.33,46.33,0,0,0-5.86,2.91c-8.53,5-15.15,12.48-21.2,20.32a66.17,66.17,0,0,0-11.42,21.48A69.61,69.61,0,0,0,316,406.83a25.55,25.55,0,0,0,.72,8.36,20.38,20.38,0,0,0,4-4.23c2.15-2.82,4.28-5.78,6.41-8.74,8-11.18,16.1-22.36,21.91-19.36,5.46,2.82,3.9,12.05,2.36,21.12-.36,2.14-.72,4.27-1,6.07a12.83,12.83,0,0,0,1,7.48l0,.06c1.22-.92,2.79-3.25,4.72-7.59,8.11-18.26,9.17-32.18,9.18-32.22a3.79,3.79,0,1,1,7.55.59s-1.16,15.17-9.83,34.68c-2.87,6.46-5.72,9.94-8.3,11.38a6.68,6.68,0,0,1-6,.51,8.17,8.17,0,0,1-3.91-3.62c-1.77-3.05-2.54-7.95-2-12.27.29-2.13.64-4.22,1-6.31,1.08-6.38,2.18-12.88,1.63-13.16,0,0-6.17,8.53-12.31,17.06-2.27,3.15-4.53,6.3-6.52,8.91-2.78,3.63-5.21,5.82-7.33,6.82a6.57,6.57,0,0,1-6,.13,7.58,7.58,0,0,1-3.58-4.15c-1.13-2.73-1.55-6.87-1.4-11.76a76.87,76.87,0,0,1,3-20.34,73.86,73.86,0,0,1,12.69-23.94c6.54-8.46,13.75-16.56,23.37-22.22,1-.57,2-1.13,3-1.65l-.32-.25a88.49,88.49,0,0,0-31.81-16.44c-11.37-3.2-23.56-4.33-36.91-4.21a61,61,0,0,0-22.61,4.66l.12.08a80.39,80.39,0,0,1,27.84,31.82,49.74,49.74,0,0,1,2.34,5.82c4.09,12.29,4.58,27.83,2.92,40.8-1.76,13.69-6.22,25-11.72,27.59a7,7,0,0,1-.93.38h0c-7.53,2.51-12.54-4.56-16-14.71-2.87-8.44-4.82-19.09-6.19-27-2.09-12-4.2-11.95-6.07-11.94ZM118.46,353.15c5.12-3.28,10.91-7.42,17.08-12.11a60.87,60.87,0,0,0-18.13-.56c-9.1,1-14,3.81-16.15,7.11a9,9,0,0,0-1.52,4.63,10.76,10.76,0,0,0,.81,4.56c.79,2,1.84,3.36,2.62,3.49,2.37.39,7.89-2.38,15.29-7.12ZM366.09,341c6.18,4.69,12,8.83,17.08,12.11,7.41,4.74,12.92,7.51,15.29,7.12.78-.13,1.83-1.52,2.63-3.49a10.76,10.76,0,0,0,.8-4.56,9.1,9.1,0,0,0-1.51-4.63c-2.21-3.3-7.06-6.13-16.15-7.11a60.92,60.92,0,0,0-18.14.56Zm2.4-55.71a18.26,18.26,0,0,1,12.92,31.17h0a18.26,18.26,0,0,1-25.83,0v0a18.23,18.23,0,0,1,0-25.82,2.39,2.39,0,0,1,.23-.22,18.19,18.19,0,0,1,12.69-5.13ZM376.05,296a10.71,10.71,0,0,0-15-.17l-.16.17a10.69,10.69,0,0,0,15.12,15.12h0a10.69,10.69,0,0,0,0-15.12ZM250.82,269.19a18.26,18.26,0,0,1,12.92,31.18h0a18.26,18.26,0,0,1-25.83,0v0a18.24,18.24,0,0,1,0-25.83l.23-.21a18.2,18.2,0,0,1,12.69-5.14Zm7.56,10.72a10.71,10.71,0,0,0-15-.17l-.16.17A10.69,10.69,0,0,0,258.38,295h0a10.69,10.69,0,0,0,0-15.12ZM120.24,290.68a18.26,18.26,0,0,1,26,25.61l-.21.23a18.26,18.26,0,0,1-25.83,0v0a18.23,18.23,0,0,1,0-25.82h0Z" style="fill:url(#ad4721cb-e10a-47d7-aefa-84d6043fd2eb)"/></g></g></svg>